<?xml version="1.0" encoding="UTF-8" standalone="no"?>
<svg
   viewBox="0 0 82.115707 106.33291"
   version="1.1"
   id="svg1"
   xml:space="preserve"
   inkscape:version="1.1.1 (c3084ef, 2021-09-22)"
   sodipodi:docname="TKRTipsLogo.svg"
   xmlns:inkscape="http://www.inkscape.org/namespaces/inkscape"
   xmlns:sodipodi="http://sodipodi.sourceforge.net/DTD/sodipodi-0.dtd"
   xmlns="http://www.w3.org/2000/svg"
   xmlns:svg="http://www.w3.org/2000/svg"><sodipodi:namedview
   id="namedview1"
   pagecolor="#ffffff"
   bordercolor="#666666"
   borderopacity="1.0"
   inkscape:showpageshadow="2"
   inkscape:pageopacity="0.0"
   inkscape:pagecheckerboard="0"
   inkscape:deskcolor="#d1d1d1"
   inkscape:zoom="7.9997143"
   inkscape:cx="40.251437"
   inkscape:cy="61.127183"
   inkscape:window-width="1488"
   inkscape:window-height="1350"
   inkscape:window-x="1397"
   inkscape:window-y="25"
   inkscape:window-maximized="0"
   inkscape:current-layer="layer1"
   inkscape:pageshadow="2"
   showgrid="false" />
  <defs
   id="defs1">
    <inkscape:path-effect
   effect="bspline"
   id="path-effect24"
   is_visible="true"
   lpeversion="1.3"
   weight="33.333333"
   steps="2"
   helper_size="0"
   apply_no_weight="true"
   apply_with_weight="true"
   only_selected="false"
   uniform="false" />
    <marker
   style="overflow:visible"
   id="DartArrow"
   refX="0"
   refY="0"
   orient="auto-start-reverse"
   inkscape:stockid="Dart arrow"
   markerWidth="1"
   markerHeight="1"
   viewBox="0 0 1 1"
   inkscape:isstock="true"
   inkscape:collect="always"
   preserveAspectRatio="xMidYMid">
      <path
   style="fill:context-stroke;fill-rule:evenodd;stroke:none"
   d="M 0,0 5,-5 -12.5,0 5,5 Z"
   transform="scale(-0.5)"
   id="path6" />
    </marker>
    <inkscape:path-effect
   effect="bspline"
   id="path-effect22"
   is_visible="true"
   lpeversion="1.3"
   weight="33.333333"
   steps="2"
   helper_size="0"
   apply_no_weight="true"
   apply_with_weight="true"
   only_selected="false"
   uniform="false" />
    <linearGradient
   id="swatch1"
   inkscape:swatch="solid">
      <stop
   style="stop-color:#000000;stop-opacity:1;"
   offset="0"
   id="stop1" />
    </linearGradient>
    <marker
   style="overflow:visible"
   id="DartArrow-1"
   refX="0"
   refY="0"
   orient="auto-start-reverse"
   inkscape:stockid="Dart arrow"
   markerWidth="1"
   markerHeight="1"
   viewBox="0 0 1 1"
   inkscape:isstock="true"
   inkscape:collect="always"
   preserveAspectRatio="xMidYMid">
      <path
   style="fill:context-stroke;fill-rule:evenodd;stroke:none"
   d="M 0,0 5,-5 -12.5,0 5,5 Z"
   transform="scale(-0.5)"
   id="path6-8" />
    </marker>
    <inkscape:path-effect
   effect="bspline"
   id="path-effect22-7"
   is_visible="true"
   lpeversion="1.3"
   weight="33.333333"
   steps="2"
   helper_size="0"
   apply_no_weight="true"
   apply_with_weight="true"
   only_selected="false"
   uniform="false" />
  </defs>
  <g
   inkscape:groupmode="layer"
   id="layer2"
   inkscape:label="Notebook"
   transform="translate(-65.620141,-77.227002)">
    <g
   fill="currentColor"
   id="g2"
   transform="matrix(3.0413227,0,0,3.4300943,65.62014,73.796907)">
      <path
   d="M 23.5,32 C 24.369,32 25,31.369 25,30.5 V 2.5 C 25,1.631 24.369,1 23.5,1 H 3.5 C 2.631,1 2,1.631 2,2.5 v 1.167 a 0.5,0.5 0 0 0 1,0 V 2.5 C 3,2.187 3.187,2 3.5,2 H 8.062 V 31 H 3.5 C 3.187,31 3,30.813 3,30.5 v -0.917 a 0.5,0.5 0 0 0 -1,0 V 30.5 C 2,31.369 2.631,32 3.5,32 Z M 9,2 H 23.5 C 23.813,2 24,2.187 24,2.5 v 28 C 24,30.813 23.813,31 23.5,31 H 9 Z m 18,27.5 v -26 a 0.5,0.5 0 0 0 -1,0 v 26 a 0.5,0.5 0 0 0 1,0"
   id="path1" />
      <path
   d="m 0.5,11 h 4 a 0.5,0.5 0 0 0 0,-1 h -4 a 0.5,0.5 0 0 0 0,1 m 0,-4 h 4 a 0.5,0.5 0 0 0 0,-1 h -4 a 0.5,0.5 0 0 0 0,1 m 0,8 h 4 a 0.5,0.5 0 0 0 0,-1 h -4 a 0.5,0.5 0 0 0 0,1 m 0,8 h 4 a 0.5,0.5 0 0 0 0,-1 h -4 a 0.5,0.5 0 0 0 0,1 m 0,-4 h 4 a 0.5,0.5 0 0 0 0,-1 h -4 a 0.5,0.5 0 0 0 0,1 m 0,8 h 4 a 0.5,0.5 0 0 0 0,-1 h -4 a 0.5,0.5 0 0 0 0,1"
   id="path2" />
    </g>
  </g>
  <g
   inkscape:groupmode="layer"
   id="layer3"
   inkscape:label="Castle"
   transform="translate(-65.620141,-77.227002)">
    <g
   id="g1"
   transform="matrix(0.26458333,0,0,0.26458333,96.444979,157.25389)"
   style="fill:#019cc8;fill-opacity:1">
      <path
   fill="currentColor"
   d="m 15.241,22 c 0,-1.004 -0.833,-1.818 -1.861,-1.818 -1.027,0 -1.863,0.814 -1.863,1.818 v 5.454 h 3.725 z m 37.242,0 c 0,-1.004 -0.834,-1.818 -1.863,-1.818 -1.026,0 -1.861,0.814 -1.861,1.818 v 5.454 h 3.725 V 22 Z"
   id="path1-3"
   style="fill:#019cc8;fill-opacity:1" />
      <path
   fill="currentColor"
   d="M 59,7.96 A 16.2,16.2 0 0 0 57.139,5.244 C 57.759,4.425 58.38,3.738 59,3.312 c -2.481,-1.396 -4.965,1.394 -7.447,0 V 2.909 C 51.553,2.409 51.134,2 50.62,2 A 0.924,0.924 0 0 0 49.689,2.909 V 12 l -6.517,6.364 h 1.861 V 29.272 H 41.309 V 22 h 1.862 L 32.931,12 V 7.96 c 2.484,1.396 4.967,-1.394 7.449,0 A 16,16 0 0 0 38.517,5.244 c 0.622,-0.819 1.242,-1.506 1.863,-1.932 -2.482,-1.396 -4.965,1.394 -7.449,0 V 2.909 C 32.931,2.409 32.513,2 32,2 A 0.924,0.924 0 0 0 31.069,2.909 V 12 L 20.827,22 h 1.862 v 7.272 H 18.965 V 18.364 h 1.861 L 14.311,12 V 7.96 c 2.482,1.396 4.965,-1.394 7.448,0 A 16.2,16.2 0 0 0 19.897,5.244 c 0.62,-0.819 1.242,-1.506 1.862,-1.932 -2.483,-1.396 -4.966,1.394 -7.448,0 V 2.909 C 14.311,2.409 13.892,2 13.38,2 12.868,2 12.448,2.409 12.448,2.909 V 12 L 5.93,18.364 H 7.791 V 29.272 C 6.253,29.272 5,30.496 5,32 v 3.636 c 0,0.979 0.494,2.146 1.203,2.838 l 0.546,0.533 c 0.028,0.041 0.103,0.217 0.114,0.3 L 6.861,59.272 C 6.861,60.776 8.114,62 9.655,62 h 16.758 v -3.635 h 0.93 v 1.817 c 0,0 0.603,0.909 0.932,0.909 0.329,0 0.931,-0.909 0.931,-0.909 v -1.817 h 1.863 v 1.817 c 0,0 0.602,0.909 0.931,0.909 0.329,0 0.931,-0.909 0.931,-0.909 v -1.817 h 1.863 v 1.817 c 0,0 0.602,0.909 0.931,0.909 0.329,0 0.932,-0.909 0.932,-0.909 v -1.817 h 0.93 V 62 h 16.758 c 1.541,0 2.794,-1.224 2.794,-2.728 v -20 c 0.009,-0.049 0.084,-0.225 0.137,-0.291 l 0.521,-0.508 C 58.506,37.782 59,36.615 59,35.636 V 32 c 0,-1.504 -1.253,-2.728 -2.793,-2.728 V 18.364 h 1.862 L 51.553,12 V 7.96 c 2.482,1.396 4.966,-1.393 7.447,0 M 24.553,22 h 14.896 v 7.981 A 2.7,2.7 0 0 0 38.517,32 v 2.728 h -1.86 V 32 c 0,-1.184 -0.781,-2.183 -1.862,-2.56 v -1.986 c 0,-1.506 -1.25,-2.727 -2.794,-2.727 -1.542,0 -2.794,1.221 -2.794,2.727 v 1.986 c -1.081,0.377 -1.862,1.376 -1.862,2.56 v 2.728 h -1.86 V 32 c 0,-0.804 -0.364,-1.519 -0.931,-2.019 V 22 Z M 9.655,18.364 h 7.447 v 11.617 c -0.566,0.5 -0.93,1.215 -0.93,2.019 v 2.728 H 14.31 V 32 c 0,-1.504 -1.253,-2.728 -2.794,-2.728 H 9.655 Z m 17.689,38.182 h -0.93 v -1.818 h 0.93 z m 0,-3.637 h -0.93 v -1.818 h 0.93 z m 0,-3.637 h -0.93 c 0,-0.639 0.119,-1.248 0.325,-1.818 h 0.604 v 1.818 z m 3.725,7.274 h -1.863 v -1.818 h 1.863 z m 0,-3.637 h -1.863 v -1.818 h 1.863 z m 0,-3.637 h -1.863 v -1.818 h 1.863 z m -1.863,-3.636 v -1.08 a 5.7,5.7 0 0 1 1.863,-0.655 v 1.735 z m 5.588,10.91 h -1.863 v -1.818 h 1.863 z m 0,-3.637 h -1.863 v -1.818 h 1.863 z m 0,-3.637 h -1.863 v -1.818 h 1.863 z M 32.931,45.636 V 43.9 a 5.6,5.6 0 0 1 1.863,0.655 v 1.08 h -1.863 z m 3.725,5.455 h 0.93 v 1.818 h -0.93 z m 0,-1.819 v -1.818 h 0.604 c 0.206,0.57 0.325,1.18 0.325,1.818 z m 0,7.274 v -1.818 h 0.93 v 1.818 z M 57.139,32 v 3.636 c 0,0.5 -0.297,1.199 -0.659,1.553 l -0.545,0.532 c -0.029,0.03 -0.056,0.073 -0.086,0.108 a 0.93,0.93 0 0 0 -0.572,-0.211 h -3.724 c -0.512,0 -0.933,0.409 -0.933,0.908 v 1.818 c 0,0.5 0.421,0.91 0.933,0.91 h 3.724 v 6.199 h -3.259 a 0.924,0.924 0 0 0 -0.931,0.91 v 1.817 c 0,0.5 0.42,0.909 0.931,0.909 h 3.259 v 8.182 c 0,0.5 -0.418,0.909 -0.932,0.909 H 46.78 a 0.923,0.923 0 0 0 0.932,-0.909 v -1.818 c 0,-0.5 -0.419,-0.908 -0.932,-0.908 h -3.724 c -0.511,0 -0.932,0.408 -0.932,0.908 v 1.818 c 0,0.5 0.421,0.909 0.932,0.909 H 39.448 V 49.272 C 39.448,45.257 36.114,42 32,42 c -4.113,0 -7.447,3.257 -7.447,7.272 v 10.909 h -1.59 a 0.924,0.924 0 0 0 0.932,-0.909 v -1.818 c 0,-0.5 -0.421,-0.908 -0.932,-0.908 h -3.725 a 0.92,0.92 0 0 0 -0.931,0.908 v 1.818 c 0,0.5 0.418,0.909 0.931,0.909 H 9.655 A 0.924,0.924 0 0 1 8.723,59.272 v -2.727 h 3.259 c 0.513,0 0.931,-0.41 0.931,-0.91 v -1.817 c 0,-0.5 -0.418,-0.909 -0.931,-0.909 H 8.724 v -7.273 h 3.259 a 0.92,0.92 0 0 0 0.931,-0.908 V 42.91 c 0,-0.5 -0.418,-0.909 -0.931,-0.909 H 8.724 v -2.728 c 0,-0.5 -0.296,-1.198 -0.658,-1.552 L 7.521,37.189 C 7.159,36.835 6.862,36.136 6.862,35.636 V 32 c 0,-0.5 0.421,-0.909 0.931,-0.909 h 3.725 c 0.514,0 0.932,0.409 0.932,0.909 v 3.636 c 0,0.5 0.42,0.91 0.932,0.91 h 3.723 c 0.514,0 0.931,-0.41 0.931,-0.91 V 32 c 0,-0.5 0.421,-0.909 0.933,-0.909 h 3.724 c 0.513,0 0.931,0.409 0.931,0.909 v 3.636 c 0,0.5 0.421,0.91 0.933,0.91 h 3.723 c 0.513,0 0.931,-0.41 0.931,-0.91 V 32 c 0,-0.5 0.421,-0.909 0.932,-0.909 h 3.725 c 0.513,0 0.932,0.409 0.932,0.909 v 3.636 c 0,0.5 0.42,0.91 0.931,0.91 h 3.724 c 0.513,0 0.932,-0.41 0.932,-0.91 V 32 c 0,-0.5 0.42,-0.909 0.931,-0.909 h 3.724 c 0.513,0 0.933,0.409 0.933,0.909 v 3.636 c 0,0.5 0.42,0.91 0.931,0.91 h 3.723 c 0.514,0 0.933,-0.41 0.933,-0.91 V 32 c 0,-0.5 0.419,-0.909 0.931,-0.909 h 3.724 A 0.92,0.92 0 0 1 57.139,32 M 54.345,18.364 v 10.908 h -1.861 c -1.541,0 -2.794,1.224 -2.794,2.728 v 2.728 H 47.828 V 32 c 0,-0.804 -0.363,-1.519 -0.93,-2.019 V 18.364 Z"
   id="path2-9"
   style="fill:#019cc8;fill-opacity:1" />
      <path
   fill="currentColor"
   d="m 14.775,47.454 h -3.723 a 0.925,0.925 0 0 0 -0.933,0.91 v 1.817 c 0,0.5 0.421,0.909 0.933,0.909 h 3.723 a 0.92,0.92 0 0 0 0.931,-0.909 v -1.817 c 0,-0.5 -0.418,-0.91 -0.931,-0.91 M 21.002,52 h -3.724 a 0.924,0.924 0 0 0 -0.932,0.909 v 1.818 c 0,0.5 0.42,0.908 0.932,0.908 h 3.724 a 0.923,0.923 0 0 0 0.932,-0.908 v -1.818 c 0,-0.5 -0.42,-0.909 -0.932,-0.909 m 1.961,-7.272 h -3.725 a 0.92,0.92 0 0 0 -0.931,0.908 v 1.818 c 0,0.5 0.418,0.91 0.931,0.91 h 3.725 c 0.511,0 0.932,-0.41 0.932,-0.91 v -1.818 c 0,-0.499 -0.421,-0.908 -0.932,-0.908 m -2.601,-2.791 c 0.512,0 0.932,-0.41 0.932,-0.91 V 39.21 c 0,-0.5 -0.42,-0.909 -0.932,-0.909 h -3.725 a 0.924,0.924 0 0 0 -0.932,0.909 v 1.817 c 0,0.5 0.421,0.91 0.932,0.91 z m 27.932,11.881 v 1.817 c 0,0.5 0.42,0.91 0.931,0.91 h 3.724 c 0.513,0 0.932,-0.41 0.932,-0.91 v -1.817 c 0,-0.5 -0.419,-0.909 -0.932,-0.909 h -3.724 a 0.924,0.924 0 0 0 -0.931,0.909 m 1.395,-8.459 v -1.818 a 0.923,0.923 0 0 0 -0.931,-0.909 h -3.725 a 0.924,0.924 0 0 0 -0.931,0.909 v 1.818 c 0,0.5 0.42,0.909 0.931,0.909 h 3.725 a 0.92,0.92 0 0 0 0.931,-0.909 m -4.655,3.459 H 41.31 a 0.924,0.924 0 0 0 -0.931,0.909 v 1.818 c 0,0.5 0.42,0.908 0.931,0.908 h 3.724 a 0.923,0.923 0 0 0 0.933,-0.908 v -1.818 a 0.925,0.925 0 0 0 -0.933,-0.909 m -3.258,-7.563 v -1.818 c 0,-0.5 -0.419,-0.91 -0.932,-0.91 H 37.12 a 0.924,0.924 0 0 0 -0.931,0.91 v 1.818 c 0,0.499 0.42,0.908 0.931,0.908 h 3.725 a 0.923,0.923 0 0 0 0.931,-0.908"
   id="path3"
   style="fill:#019cc8;fill-opacity:1" />
    </g>
  </g>
  <g
   inkscape:groupmode="layer"
   id="layer4"
   inkscape:label="microscope"
   transform="translate(-65.620141,-77.227002)">
    <path
   fill="currentColor"
   d="m 110.88817,137.62952 h -3.74559 a 2.1675818,2.3452667 0 0 0 0.10323,-0.46202 5.8091192,6.2853148 0 0 0 3.64225,-5.792 5.7440917,6.2149568 0 0 0 -1.53682,-4.23868 l 0.46025,-0.49878 a 0.72252725,0.78175556 0 0 0 0.17422,-0.30489 l 0.51154,-1.65887 a 0.72252725,0.78175556 0 0 0 -0.17423,-0.80054 l -1.53321,-1.6581 a 0.72252725,0.78175556 0 0 0 -0.73986,-0.18909 l -1.53177,0.5527 a 0.72252725,0.78175556 0 0 0 -0.2825,0.18909 l -4.59743,4.97433 a 0.72252725,0.78175556 0 0 0 0,1.1054 l -1.0231,1.10617 a 0.72252725,0.78175556 0 0 0 0,1.1062 l 1.53319,1.65733 a 0.72252725,0.78175556 0 0 0 1.02165,0 l 1.02165,-1.10463 10e-4,0.002 a 0.72252725,0.78175556 0 0 0 1.02165,0 l 3.11411,-3.37092 a 4.3062626,4.6592633 0 0 1 1.11414,3.13171 4.37129,4.7296213 0 0 1 -2.49634,4.2457 2.1502411,2.3265046 0 0 0 -3.70222,0.0494 5.0576907,5.4722889 0 0 1 -0.80925,-0.4331 0.71530199,0.77393801 0 0 0 0.50507,-0.73485 0.72252725,0.78175556 0 0 0 -0.72255,-0.78175 h -2.890097 a 0.7225273,0.78175562 0 0 0 0,1.56349 h 0.961677 a 6.3582398,6.8794489 0 0 0 2.68565,1.9333 2.1675818,2.3452667 0 0 0 0.0983,0.41197 h -3.745577 a 0.72253181,0.78176049 0 0 0 0,1.56352 h 11.560417 a 0.72253181,0.78176049 0 0 0 0,-1.56352 m -8.22886,-6.56908 -0.51154,-0.5527 0.51154,-0.5535 0.51083,0.5535 z m 6.01,-5.39723 -3.96596,4.29339 -1.53177,-1.66123 3.96596,-4.29106 0.94724,-0.34162 0.901,0.97483 z m -3.56134,11.96631 a 0.72252725,0.78175556 0 1 1 0.72252,-0.78175 0.72252725,0.78175556 0 0 1 -0.72252,0.78175"
   id="path1-5"
   style="fill:#019cc8;fill-opacity:1;stroke-width:0.751557" />
  </g>
  <g
   inkscape:groupmode="layer"
   id="layer5"
   inkscape:label="gears"
   transform="translate(-65.620141,-77.227002)">
    <path
   fill="currentColor"
   d="m 124.56149,149.62184 q 0,-1.11084 -0.89224,-1.89681 -0.89223,-0.78598 -2.15325,-0.78598 -1.26102,0 -2.15325,0.78598 -0.89223,0.78597 -0.89223,1.89681 0,1.11084 0.89223,1.89681 0.89223,0.78598 2.15325,0.78598 1.26102,0 2.15325,-0.78598 0.89224,-0.78597 0.89224,-1.89681 m 9.13644,5.36558 q 0,-0.54494 -0.45206,-0.94317 -0.45206,-0.39823 -1.07067,-0.39823 -0.61862,0 -1.07069,0.39823 -0.45206,0.39823 -0.45206,0.94317 0,0.55542 0.44612,0.94841 0.44612,0.39298 1.07663,0.39298 0.63051,0 1.07662,-0.39298 0.44611,-0.39299 0.44611,-0.94841 m 0,-10.73114 q 0,-0.54495 -0.45206,-0.94318 -0.45206,-0.39823 -1.07067,-0.39823 -0.61862,0 -1.07069,0.39823 -0.45206,0.39823 -0.45206,0.94318 0,0.55541 0.44612,0.9484 0.44612,0.39298 1.07663,0.39298 0.63051,0 1.07662,-0.39298 0.44611,-0.39299 0.44611,-0.9484 m -4.56822,4.41192 v 1.93873 q 0,0.1048 -0.0833,0.20435 -0.0833,0.0996 -0.19035,0.11004 l -1.84394,0.25151 q -0.13087,0.36679 -0.38068,0.79645 0.40447,0.50302 1.07067,1.20516 0.0833,0.11528 0.0833,0.20959 0,0.12576 -0.0833,0.19912 -0.27362,0.31438 -0.98146,0.93793 -0.70783,0.62353 -0.93386,0.62353 -0.13086,0 -0.24983,-0.0734 l -1.36809,-0.94318 q -0.44017,0.19912 -0.91602,0.32488 -0.13086,1.13179 -0.27362,1.62434 -0.0833,0.25151 -0.35689,0.25151 h -2.21273 q -0.13086,0 -0.23793,-0.0786 -0.10708,-0.0786 -0.11897,-0.18339 l -0.27362,-1.60339 q -0.40448,-0.10479 -0.89223,-0.32487 l -1.40377,0.9327 q -0.0833,0.0734 -0.23794,0.0734 -0.13086,0 -0.24982,-0.0838 -1.71309,-1.39379 -1.71309,-1.67674 0,-0.0943 0.0833,-0.19911 0.11896,-0.14671 0.48775,-0.55543 0.3688,-0.40869 0.55913,-0.63925 -0.27361,-0.4611 -0.41637,-0.85933 l -1.80826,-0.25151 q -0.11896,-0.0105 -0.20223,-0.0996 -0.0833,-0.0891 -0.0833,-0.20435 v -1.93873 q 0,-0.1048 0.0833,-0.20436 0.0833,-0.0996 0.19034,-0.11003 l 1.84394,-0.25152 q 0.13086,-0.36678 0.38069,-0.79644 -0.40448,-0.50303 -1.07068,-1.20517 -0.0833,-0.11527 -0.0833,-0.20959 0,-0.12575 0.0833,-0.20959 0.26173,-0.31439 0.97551,-0.93268 0.71378,-0.61831 0.93981,-0.61831 0.13086,0 0.24983,0.0734 l 1.36809,0.94317 q 0.40447,-0.18863 0.91602,-0.33535 0.13087,-1.1318 0.27362,-1.61387 0.0833,-0.25151 0.3569,-0.25151 h 2.21273 q 0.13086,0 0.23793,0.0786 0.10706,0.0786 0.11896,0.18339 l 0.27362,1.60339 q 0.40447,0.1048 0.89223,0.32487 l 1.40377,-0.93269 q 0.0952,-0.0734 0.23794,-0.0734 0.13086,0 0.24982,0.0838 1.71308,1.39379 1.71308,1.67674 0,0.0838 -0.0833,0.19912 -0.14275,0.16767 -0.49965,0.5659 -0.35689,0.39823 -0.53533,0.62877 0.27361,0.50303 0.40447,0.85933 l 1.80826,0.24103 q 0.11896,0.021 0.20224,0.11004 0.0833,0.0891 0.0833,0.20436 m 7.61371,5.58565 v 1.46714 q 0,0.16767 -1.77257,0.32487 -0.14276,0.28295 -0.35689,0.54494 0.60672,1.1842 0.60672,1.44619 0,0.0419 -0.0476,0.0734 -1.45136,0.74406 -1.47516,0.74406 -0.0952,0 -0.54723,-0.49255 -0.45206,-0.49254 -0.61861,-0.71261 -0.23793,0.021 -0.35689,0.021 -0.11896,0 -0.35689,-0.021 -0.16656,0.22007 -0.61862,0.71261 -0.45206,0.49255 -0.54724,0.49255 -0.0238,0 -1.47515,-0.74406 -0.0476,-0.0314 -0.0476,-0.0734 0,-0.26199 0.60672,-1.44619 -0.21413,-0.26199 -0.35689,-0.54494 -1.77257,-0.1572 -1.77257,-0.32487 v -1.46714 q 0,-0.16769 1.77257,-0.32488 0.15466,-0.30391 0.35689,-0.54494 -0.60672,-1.1842 -0.60672,-1.44619 0,-0.0419 0.0476,-0.0734 0.0476,-0.021 0.41638,-0.20959 0.36878,-0.18863 0.70188,-0.3563 0.3331,-0.16768 0.35689,-0.16768 0.0952,0 0.54724,0.4873 0.45206,0.48731 0.61862,0.70738 0.23793,-0.021 0.35689,-0.021 0.11896,0 0.35689,0.021 0.60671,-0.74405 1.09447,-1.17372 l 0.0714,-0.021 q 0.0476,0 1.47516,0.73357 0.0476,0.0315 0.0476,0.0734 0,0.26199 -0.60672,1.44618 0.20224,0.24104 0.3569,0.54495 1.77256,0.1572 1.77256,0.32487 m 0,-10.73115 v 1.46715 q 0,0.16768 -1.77256,0.32487 -0.14276,0.28295 -0.3569,0.54494 0.60672,1.18421 0.60672,1.44619 0,0.0419 -0.0476,0.0734 -1.45136,0.74405 -1.47516,0.74405 -0.0952,0 -0.54723,-0.49254 -0.45206,-0.49254 -0.61862,-0.71262 -0.23793,0.021 -0.35689,0.021 -0.11896,0 -0.35689,-0.021 -0.16655,0.22008 -0.61862,0.71262 -0.45206,0.49254 -0.54723,0.49254 -0.0238,0 -1.47516,-0.74405 -0.0476,-0.0315 -0.0476,-0.0734 0,-0.26198 0.60672,-1.44619 -0.21413,-0.26199 -0.3569,-0.54494 -1.77256,-0.15719 -1.77256,-0.32487 v -1.46715 q 0,-0.16767 1.77256,-0.32487 0.15466,-0.30391 0.3569,-0.54494 -0.60672,-1.18419 -0.60672,-1.44618 0,-0.0419 0.0476,-0.0734 0.0476,-0.021 0.41638,-0.20959 0.36878,-0.18864 0.70189,-0.35631 0.3331,-0.16767 0.35689,-0.16767 0.0952,0 0.54723,0.48729 0.45207,0.48731 0.61862,0.70738 0.23793,-0.021 0.35689,-0.021 0.11896,0 0.35689,0.021 0.60671,-0.74405 1.09448,-1.17372 l 0.0713,-0.021 q 0.0476,0 1.47516,0.73358 0.0476,0.0314 0.0476,0.0734 0,0.26199 -0.60672,1.44619 0.20224,0.24103 0.35689,0.54493 1.77257,0.1572 1.77257,0.32488"
   id="path1-4"
   style="fill:#019cc8;fill-opacity:1;stroke-width:0.0111655" />
  </g>
  <g
   inkscape:groupmode="layer"
   id="layer6"
   inkscape:label="Arrows"
   transform="translate(-65.620141,-77.227002)">
    <path
   style="fill:none;stroke:#019cc8;stroke-width:4.93971;stroke-linecap:butt;stroke-linejoin:miter;stroke-miterlimit:2;stroke-dasharray:none;stroke-opacity:1;marker-end:url(#DartArrow)"
   d="m 35.762943,2.0027243 c 11.456459,-0.1254772 22.042394,-0.24142 35.365399,-0.1451312 13.323005,0.096289 28.07406,0.4337621 35.935988,3.7473751 7.86192,3.313613 14.32095,11.7731258 18.65051,23.9275968 4.32956,12.154471 6.39924,27.812354 7.89552,39.132285"
   id="path21"
   inkscape:path-effect="#path-effect22"
   inkscape:original-d="m 35.762943,2.0027243 c 0,0 22.042394,-0.24142 34.369376,-0.3764317 14.319028,0.3275894 29.070083,0.6650626 39.923481,0.9133656 4.87045,6.3789227 11.32948,14.8384328 17.91561,23.4644248 2.07299,15.682953 4.14267,31.340836 5.63895,42.660767"
   sodipodi:nodetypes="ccccc"
   transform="matrix(0.14186081,0,0,0.13644567,109.73801,125.09894)" />
    <path
   style="fill:none;stroke:#019cc8;stroke-width:4.93971;stroke-linecap:butt;stroke-linejoin:miter;stroke-miterlimit:2;stroke-dasharray:none;stroke-opacity:1;marker-end:url(#DartArrow-1)"
   d="m 35.762943,2.0027243 c 11.456459,-0.1254772 22.042394,-0.24142 35.365399,-0.1451312 13.323005,0.096289 28.07406,0.4337621 35.935988,3.7473751 7.86192,3.313613 14.32095,11.7731258 18.65051,23.9275968 4.32956,12.154471 6.39924,27.812354 7.89552,39.132285"
   id="path21-0"
   inkscape:path-effect="#path-effect22-7"
   inkscape:original-d="m 35.762943,2.0027243 c 0,0 22.042394,-0.24142 34.369376,-0.3764317 14.319028,0.3275894 29.070083,0.6650626 39.923481,0.9133656 4.87045,6.3789227 11.32948,14.8384328 17.91561,23.4644248 2.07299,15.682953 4.14267,31.340836 5.63895,42.660767"
   sodipodi:nodetypes="ccccc"
   transform="matrix(0,0.10799904,-0.1308453,0,127.87466,156.50791)" />
    <path
   style="fill:none;stroke:#019cc8;stroke-width:4.93971;stroke-linecap:butt;stroke-linejoin:miter;stroke-miterlimit:2;stroke-dasharray:none;stroke-opacity:1;marker-end:url(#DartArrow)"
   d="m 35.762943,2.0027243 c 11.456459,-0.1254772 22.042394,-0.24142 35.365399,-0.1451312 13.323005,0.096289 28.07406,0.4337621 35.935988,3.7473751 7.86192,3.313613 14.32095,11.7731258 18.65051,23.9275968 4.32956,12.154471 6.39924,27.812354 7.89552,39.132285"
   id="path22"
   sodipodi:nodetypes="ccccc"
   transform="matrix(0.14186081,0,0,0.13644567,109.73801,125.09894)"
   inkscape:original-d="m 35.762943,2.0027243 c 0,0 22.042394,-0.24142 34.369376,-0.3764317 14.319028,0.3275894 29.070083,0.6650626 39.923481,0.9133656 4.87045,6.3789227 11.32948,14.8384328 17.91561,23.4644248 2.07299,15.682953 4.14267,31.340836 5.63895,42.660767"
   inkscape:path-effect="#path-effect24" />
    
  </g><g
   inkscape:groupmode="layer"
   id="layer1"
   inkscape:label="Text"><text
     xml:space="preserve"
     style="font-size:15.9905px;line-height:0.85;font-family:'Micro 5';-inkscape-font-specification:'Micro 5, ';writing-mode:lr-tb;stroke-width:0.342951;stroke-dasharray:none"
     x="56.127701"
     y="17.078016"
     id="text1"
     transform="scale(0.9063243,1.1033578)"><tspan
       sodipodi:role="line"
       style="font-size:15.9905px;line-height:0.85;text-align:center;writing-mode:lr-tb;text-anchor:middle;fill:#019cc8;fill-opacity:1;stroke-width:0.342951;stroke-dasharray:none"
       x="56.127701"
       y="17.078016"
       id="tspan7">Evony TKR</tspan><tspan
       sodipodi:role="line"
       style="font-size:15.9905px;line-height:0.85;text-align:center;writing-mode:lr-tb;text-anchor:middle;fill:#019cc8;fill-opacity:1;stroke-width:0.342951;stroke-dasharray:none"
       x="56.127701"
       y="30.669939"
       id="tspan8">Tips</tspan></text></g>
</svg>
